<svg width="420" height="435" viewBox="0 0 420 435" fill="none" xmlns="http://www.w3.org/2000/svg">
<path d="M210 6L292 88" stroke="#1B140E" stroke-width="2"/>
<path d="M292 88L210 170" stroke="#1B140E" stroke-width="2"/>
<path d="M210 170L128 88" stroke="#1B140E" stroke-width="2"/>
<path d="M128 88L210 6" stroke="#1B140E" stroke-width="2"/>
<path d="M210 18L280 88" stroke="#1B140E"/>
<path d="M280 88L210 158" stroke="#1B140E"/>
<path d="M210 158L140 88" stroke="#1B140E"/>
<path d="M140 88L210 18" stroke="#1B140E"/>
<path d="M210 12C213.314 12 216 9.31371 216 6C216 2.68629 213.314 0 210 0C206.686 0 204 2.68629 204 6C204 9.31371 206.686 12 210 12Z" fill="#1B140E"/>
<path d="M292 94C295.314 94 298 91.3137 298 88C298 84.6863 295.314 82 292 82C288.686 82 286 84.6863 286 88C286 91.3137 288.686 94 292 94Z" fill="#1B140E"/>
<path d="M210 176C213.314 176 216 173.314 216 170C216 166.686 213.314 164 210 164C206.686 164 204 166.686 204 170C204 173.314 206.686 176 210 176Z" fill="#1B140E"/>
<path d="M128 94C131.314 94 134 91.3137 134 88C134 84.6863 131.314 82 128 82C124.686 82 122 84.6863 122 88C122 91.3137 124.686 94 128 94Z" fill="#1B140E"/>
<path d="M239.149 77.16C239.149 80.82 238.309 84.18 236.629 87.24C234.949 90.24 232.369 92.67 228.889 94.53C225.409 96.39 221.089 97.32 215.929 97.32H206.389V120H190.999V56.82H215.929C220.969 56.82 225.229 57.69 228.709 59.43C232.189 61.17 234.799 63.57 236.539 66.63C238.279 69.69 239.149 73.2 239.149 77.16ZM214.759 85.08C217.699 85.08 219.889 84.39 221.329 83.01C222.769 81.63 223.489 79.68 223.489 77.16C223.489 74.64 222.769 72.69 221.329 71.31C219.889 69.93 217.699 69.24 214.759 69.24H206.389V85.08H214.759Z" fill="#1B140E"/>
<path d="M71.933 222.88C71.933 227.76 70.813 232.24 68.573 236.32C66.333 240.32 62.893 243.56 58.253 246.04C53.613 248.52 47.853 249.76 40.973 249.76H28.253V280H7.73297V195.76H40.973C47.693 195.76 53.373 196.92 58.013 199.24C62.653 201.56 66.133 204.76 68.453 208.84C70.773 212.92 71.933 217.6 71.933 222.88ZM39.413 233.44C43.333 233.44 46.253 232.52 48.173 230.68C50.093 228.84 51.053 226.24 51.053 222.88C51.053 219.52 50.093 216.92 48.173 215.08C46.253 213.24 43.333 212.32 39.413 212.32H28.253V233.44H39.413ZM125.576 280L108.056 248.2H103.136V280H82.6158V195.76H117.056C123.696 195.76 129.336 196.92 133.976 199.24C138.696 201.56 142.216 204.76 144.536 208.84C146.856 212.84 148.016 217.32 148.016 222.28C148.016 227.88 146.416 232.88 143.216 237.28C140.096 241.68 135.456 244.8 129.296 246.64L148.736 280H125.576ZM103.136 233.68H115.856C119.616 233.68 122.416 232.76 124.256 230.92C126.176 229.08 127.136 226.48 127.136 223.12C127.136 219.92 126.176 217.4 124.256 215.56C122.416 213.72 119.616 212.8 115.856 212.8H103.136V233.68ZM200.737 280.84C192.817 280.84 185.537 279 178.897 275.32C172.337 271.64 167.097 266.52 163.177 259.96C159.337 253.32 157.417 245.88 157.417 237.64C157.417 229.4 159.337 222 163.177 215.44C167.097 208.88 172.337 203.76 178.897 200.08C185.537 196.4 192.817 194.56 200.737 194.56C208.657 194.56 215.897 196.4 222.457 200.08C229.097 203.76 234.297 208.88 238.057 215.44C241.897 222 243.817 229.4 243.817 237.64C243.817 245.88 241.897 253.32 238.057 259.96C234.217 266.52 229.017 271.64 222.457 275.32C215.897 279 208.657 280.84 200.737 280.84ZM200.737 262.12C207.457 262.12 212.817 259.88 216.817 255.4C220.897 250.92 222.937 245 222.937 237.64C222.937 230.2 220.897 224.28 216.817 219.88C212.817 215.4 207.457 213.16 200.737 213.16C193.937 213.16 188.497 215.36 184.417 219.76C180.417 224.16 178.417 230.12 178.417 237.64C178.417 245.08 180.417 251.04 184.417 255.52C188.497 259.92 193.937 262.12 200.737 262.12ZM310.073 195.76V212.2H275.753V229.96H301.433V245.92H275.753V280H255.233V195.76H310.073ZM341.378 195.76V280H320.858V195.76H341.378ZM416.849 195.76V212.2H394.529V280H374.009V212.2H351.689V195.76H416.849Z" fill="#1B140E"/>
<path d="M17.545 306.998V353H11.539V306.998H17.545ZM63.9492 353H57.9432L33.7872 316.37V353H27.7812V306.932H33.7872L57.9432 343.496V306.932H63.9492V353ZM112.203 306.998L94.8455 353H87.9155L70.5575 306.998H76.9595L91.4135 346.664L105.867 306.998H112.203ZM124.795 311.882V327.26H141.559V332.21H124.795V348.05H143.539V353H118.789V306.932H143.539V311.882H124.795ZM176.849 353L165.893 334.19H158.633V353H152.627V306.998H167.477C170.953 306.998 173.879 307.592 176.255 308.78C178.675 309.968 180.479 311.574 181.667 313.598C182.855 315.622 183.449 317.932 183.449 320.528C183.449 323.696 182.525 326.49 180.677 328.91C178.873 331.33 176.145 332.936 172.493 333.728L184.043 353H176.849ZM158.633 329.372H167.477C170.733 329.372 173.175 328.58 174.803 326.996C176.431 325.368 177.245 323.212 177.245 320.528C177.245 317.8 176.431 315.688 174.803 314.192C173.219 312.696 170.777 311.948 167.477 311.948H158.633V329.372ZM207.367 353.462C204.331 353.462 201.603 352.934 199.183 351.878C196.807 350.778 194.937 349.282 193.573 347.39C192.209 345.454 191.505 343.232 191.461 340.724H197.863C198.083 342.88 198.963 344.706 200.503 346.202C202.087 347.654 204.375 348.38 207.367 348.38C210.227 348.38 212.471 347.676 214.099 346.268C215.771 344.816 216.607 342.968 216.607 340.724C216.607 338.964 216.123 337.534 215.155 336.434C214.187 335.334 212.977 334.498 211.525 333.926C210.073 333.354 208.115 332.738 205.651 332.078C202.615 331.286 200.173 330.494 198.325 329.702C196.521 328.91 194.959 327.678 193.639 326.006C192.363 324.29 191.725 322.002 191.725 319.142C191.725 316.634 192.363 314.412 193.639 312.476C194.915 310.54 196.697 309.044 198.985 307.988C201.317 306.932 203.979 306.404 206.971 306.404C211.283 306.404 214.803 307.482 217.531 309.638C220.303 311.794 221.865 314.654 222.217 318.218H215.617C215.397 316.458 214.473 314.918 212.845 313.598C211.217 312.234 209.061 311.552 206.377 311.552C203.869 311.552 201.823 312.212 200.239 313.532C198.655 314.808 197.863 316.612 197.863 318.944C197.863 320.616 198.325 321.98 199.249 323.036C200.217 324.092 201.383 324.906 202.747 325.478C204.155 326.006 206.113 326.622 208.621 327.326C211.657 328.162 214.099 328.998 215.947 329.834C217.795 330.626 219.379 331.88 220.699 333.596C222.019 335.268 222.679 337.556 222.679 340.46C222.679 342.704 222.085 344.816 220.897 346.796C219.709 348.776 217.949 350.382 215.617 351.614C213.285 352.846 210.535 353.462 207.367 353.462ZM237.524 306.998V353H231.518V306.998H237.524ZM268.616 353.462C264.348 353.462 260.454 352.472 256.934 350.492C253.414 348.468 250.62 345.674 248.552 342.11C246.528 338.502 245.516 334.454 245.516 329.966C245.516 325.478 246.528 321.452 248.552 317.888C250.62 314.28 253.414 311.486 256.934 309.506C260.454 307.482 264.348 306.47 268.616 306.47C272.928 306.47 276.844 307.482 280.364 309.506C283.884 311.486 286.656 314.258 288.68 317.822C290.704 321.386 291.716 325.434 291.716 329.966C291.716 334.498 290.704 338.546 288.68 342.11C286.656 345.674 283.884 348.468 280.364 350.492C276.844 352.472 272.928 353.462 268.616 353.462ZM268.616 348.248C271.828 348.248 274.71 347.5 277.262 346.004C279.858 344.508 281.882 342.374 283.334 339.602C284.83 336.83 285.578 333.618 285.578 329.966C285.578 326.27 284.83 323.058 283.334 320.33C281.882 317.558 279.88 315.424 277.328 313.928C274.776 312.432 271.872 311.684 268.616 311.684C265.36 311.684 262.456 312.432 259.904 313.928C257.352 315.424 255.328 317.558 253.832 320.33C252.38 323.058 251.654 326.27 251.654 329.966C251.654 333.618 252.38 336.83 253.832 339.602C255.328 342.374 257.352 344.508 259.904 346.004C262.5 347.5 265.404 348.248 268.616 348.248ZM335.812 353H329.807L305.651 316.37V353H299.645V306.932H305.651L329.807 343.496V306.932H335.812V353ZM352.057 311.882V327.26H368.821V332.21H352.057V348.05H370.801V353H346.051V306.932H370.801V311.882H352.057ZM394.475 353.462C391.439 353.462 388.711 352.934 386.291 351.878C383.915 350.778 382.045 349.282 380.681 347.39C379.317 345.454 378.613 343.232 378.569 340.724H384.971C385.191 342.88 386.071 344.706 387.611 346.202C389.195 347.654 391.483 348.38 394.475 348.38C397.335 348.38 399.579 347.676 401.207 346.268C402.879 344.816 403.715 342.968 403.715 340.724C403.715 338.964 403.231 337.534 402.263 336.434C401.295 335.334 400.085 334.498 398.633 333.926C397.181 333.354 395.223 332.738 392.759 332.078C389.723 331.286 387.281 330.494 385.433 329.702C383.629 328.91 382.067 327.678 380.747 326.006C379.471 324.29 378.833 322.002 378.833 319.142C378.833 316.634 379.471 314.412 380.747 312.476C382.023 310.54 383.805 309.044 386.093 307.988C388.425 306.932 391.087 306.404 394.079 306.404C398.391 306.404 401.911 307.482 404.639 309.638C407.411 311.794 408.973 314.654 409.325 318.218H402.725C402.505 316.458 401.581 314.918 399.953 313.598C398.325 312.234 396.169 311.552 393.485 311.552C390.977 311.552 388.931 312.212 387.347 313.532C385.763 314.808 384.971 316.612 384.971 318.944C384.971 320.616 385.433 321.98 386.357 323.036C387.325 324.092 388.491 324.906 389.855 325.478C391.263 326.006 393.221 326.622 395.729 327.326C398.765 328.162 401.207 328.998 403.055 329.834C404.903 330.626 406.487 331.88 407.807 333.596C409.127 335.268 409.787 337.556 409.787 340.46C409.787 342.704 409.193 344.816 408.005 346.796C406.817 348.776 405.057 350.382 402.725 351.614C400.393 352.846 397.643 353.462 394.475 353.462Z" fill="#1B140E"/>
<path d="M18.9813 371.574V412H13.7033V371.574H18.9813ZM59.7607 412H54.4827L33.2547 379.81V412H27.9767V371.516H33.2547L54.4827 403.648V371.516H59.7607V412ZM109.764 371.864V412H104.486V382.072L91.146 412H87.434L74.036 382.014V412H68.758V371.864H74.442L89.29 405.04L104.138 371.864H109.764ZM137.043 412.406C133.292 412.406 129.87 411.536 126.777 409.796C123.684 408.017 121.228 405.562 119.411 402.43C117.632 399.259 116.743 395.702 116.743 391.758C116.743 387.814 117.632 384.276 119.411 381.144C121.228 377.973 123.684 375.518 126.777 373.778C129.87 371.999 133.292 371.11 137.043 371.11C140.832 371.11 144.274 371.999 147.367 373.778C150.46 375.518 152.896 377.954 154.675 381.086C156.454 384.218 157.343 387.775 157.343 391.758C157.343 395.741 156.454 399.298 154.675 402.43C152.896 405.562 150.46 408.017 147.367 409.796C144.274 411.536 140.832 412.406 137.043 412.406ZM137.043 407.824C139.866 407.824 142.398 407.167 144.641 405.852C146.922 404.537 148.701 402.662 149.977 400.226C151.292 397.79 151.949 394.967 151.949 391.758C151.949 388.51 151.292 385.687 149.977 383.29C148.701 380.854 146.942 378.979 144.699 377.664C142.456 376.349 139.904 375.692 137.043 375.692C134.182 375.692 131.63 376.349 129.387 377.664C127.144 378.979 125.366 380.854 124.051 383.29C122.775 385.687 122.137 388.51 122.137 391.758C122.137 394.967 122.775 397.79 124.051 400.226C125.366 402.662 127.144 404.537 129.387 405.852C131.668 407.167 134.22 407.824 137.043 407.824ZM184.553 391.178C186.022 391.41 187.356 392.009 188.555 392.976C189.792 393.943 190.759 395.141 191.455 396.572C192.189 398.003 192.557 399.53 192.557 401.154C192.557 403.203 192.035 405.059 190.991 406.722C189.947 408.346 188.419 409.641 186.409 410.608C184.437 411.536 182.097 412 179.391 412H164.311V371.574H178.811C181.556 371.574 183.895 372.038 185.829 372.966C187.762 373.855 189.212 375.073 190.179 376.62C191.145 378.167 191.629 379.907 191.629 381.84C191.629 384.237 190.971 386.229 189.657 387.814C188.381 389.361 186.679 390.482 184.553 391.178ZM169.589 389.032H178.463C180.937 389.032 182.851 388.452 184.205 387.292C185.558 386.132 186.235 384.527 186.235 382.478C186.235 380.429 185.558 378.824 184.205 377.664C182.851 376.504 180.899 375.924 178.347 375.924H169.589V389.032ZM178.927 407.65C181.556 407.65 183.605 407.031 185.075 405.794C186.544 404.557 187.279 402.836 187.279 400.632C187.279 398.389 186.505 396.63 184.959 395.354C183.412 394.039 181.343 393.382 178.753 393.382H169.589V407.65H178.927ZM205.159 371.574V412H199.881V371.574H205.159ZM219.432 407.708H233.584V412H214.154V371.574H219.432V407.708ZM244.468 371.574V412H239.19V371.574H244.468ZM277.359 403.01H259.727L256.479 412H250.911L265.527 371.806H271.617L286.175 412H280.607L277.359 403.01ZM275.851 398.718L268.543 378.302L261.235 398.718H275.851ZM313.831 412L304.203 395.47H297.823V412H292.545V371.574H305.595C308.65 371.574 311.221 372.096 313.309 373.14C315.436 374.184 317.021 375.595 318.065 377.374C319.109 379.153 319.631 381.183 319.631 383.464C319.631 386.248 318.819 388.703 317.195 390.83C315.61 392.957 313.212 394.368 310.003 395.064L320.153 412H313.831ZM297.823 391.236H305.595C308.456 391.236 310.602 390.54 312.033 389.148C313.464 387.717 314.179 385.823 314.179 383.464C314.179 381.067 313.464 379.211 312.033 377.896C310.641 376.581 308.495 375.924 305.595 375.924H297.823V391.236ZM333.11 371.574V412H327.832V371.574H333.11ZM366.002 403.01H348.37L345.122 412H339.554L354.17 371.806H360.26L374.818 412H369.25L366.002 403.01ZM364.494 398.718L357.186 378.302L349.878 398.718H364.494ZM394.006 412.406C391.338 412.406 388.94 411.942 386.814 411.014C384.726 410.047 383.082 408.733 381.884 407.07C380.685 405.369 380.066 403.416 380.028 401.212H385.654C385.847 403.107 386.62 404.711 387.974 406.026C389.366 407.302 391.376 407.94 394.006 407.94C396.519 407.94 398.491 407.321 399.922 406.084C401.391 404.808 402.126 403.184 402.126 401.212C402.126 399.665 401.7 398.409 400.85 397.442C399.999 396.475 398.936 395.741 397.66 395.238C396.384 394.735 394.663 394.194 392.498 393.614C389.83 392.918 387.684 392.222 386.06 391.526C384.474 390.83 383.102 389.747 381.942 388.278C380.82 386.77 380.26 384.759 380.26 382.246C380.26 380.042 380.82 378.089 381.942 376.388C383.063 374.687 384.629 373.372 386.64 372.444C388.689 371.516 391.028 371.052 393.658 371.052C397.447 371.052 400.54 371.999 402.938 373.894C405.374 375.789 406.746 378.302 407.056 381.434H401.256C401.062 379.887 400.25 378.534 398.82 377.374C397.389 376.175 395.494 375.576 393.136 375.576C390.932 375.576 389.134 376.156 387.742 377.316C386.35 378.437 385.654 380.023 385.654 382.072C385.654 383.541 386.06 384.74 386.872 385.668C387.722 386.596 388.747 387.311 389.946 387.814C391.183 388.278 392.904 388.819 395.108 389.438C397.776 390.173 399.922 390.907 401.546 391.642C403.17 392.338 404.562 393.44 405.722 394.948C406.882 396.417 407.462 398.428 407.462 400.98C407.462 402.952 406.94 404.808 405.896 406.548C404.852 408.288 403.305 409.699 401.256 410.782C399.206 411.865 396.79 412.406 394.006 412.406Z" fill="#1B140E"/>
</svg>
