<svg width="1200" height="630" viewBox="0 0 1200 630" fill="none" xmlns="http://www.w3.org/2000/svg">
<rect width="1200" height="630" fill="#1E1E1E"/>
<path d="M660.961 188.932L659.893 190L597.961 128.068L599.029 127L660.961 188.932Z" fill="#C9A96E"/>
<path d="M660.961 190.085L599.029 253L597.961 251.915L659.893 189L660.961 190.085Z" fill="#C9A96E"/>
<path d="M598.961 251.915L597.893 253L535.961 190.085L537.029 189L598.961 251.915Z" fill="#C9A96E"/>
<path d="M598.961 128.068L537.029 190L535.961 188.932L597.893 127L598.961 128.068Z" fill="#C9A96E"/>
<path d="M651.961 189.46L651.421 190L597.961 136.54L598.501 136L651.961 189.46Z" fill="#C9A96E"/>
<path d="M651.961 190.53L598.501 243L597.961 242.47L651.421 190L651.961 190.53Z" fill="#C9A96E"/>
<path d="M598.961 242.47L598.421 243L544.961 190.53L545.501 190L598.961 242.47Z" fill="#C9A96E"/>
<path d="M598.961 136.54L545.501 190L544.961 189.46L598.421 136L598.961 136.54Z" fill="#C9A96E"/>
<path d="M598.461 132C600.946 132 602.961 129.985 602.961 127.5C602.961 125.015 600.946 123 598.461 123C595.975 123 593.961 125.015 593.961 127.5C593.961 129.985 595.975 132 598.461 132Z" fill="#C9A96E"/>
<path d="M660.461 194C662.946 194 664.961 191.985 664.961 189.5C664.961 187.015 662.946 185 660.461 185C657.975 185 655.961 187.015 655.961 189.5C655.961 191.985 657.975 194 660.461 194Z" fill="#C9A96E"/>
<path d="M598.461 257C600.946 257 602.961 254.761 602.961 252C602.961 249.239 600.946 247 598.461 247C595.975 247 593.961 249.239 593.961 252C593.961 254.761 595.975 257 598.461 257Z" fill="#C9A96E"/>
<path d="M536.461 194C538.946 194 540.961 191.985 540.961 189.5C540.961 187.015 538.946 185 536.461 185C533.975 185 531.961 187.015 531.961 189.5C531.961 191.985 533.975 194 536.461 194Z" fill="#C9A96E"/>
<path d="M620.961 181.453C620.961 184.234 620.315 186.786 619.024 189.111C617.733 191.39 615.751 193.236 613.076 194.65C610.402 196.063 607.083 196.769 603.118 196.769H595.787V214H583.961V166H603.118C606.99 166 610.264 166.661 612.938 167.983C615.612 169.305 617.618 171.128 618.955 173.453C620.292 175.778 620.961 178.444 620.961 181.453ZM602.219 187.47C604.478 187.47 606.161 186.946 607.267 185.897C608.374 184.849 608.927 183.368 608.927 181.453C608.927 179.538 608.374 178.057 607.267 177.009C606.161 175.96 604.478 175.436 602.219 175.436H595.787V187.47H602.219Z" fill="#C9A96E"/>
<path d="M755.503 271.574V284.051H738.563V335.509H722.989V284.051H706.049V271.574H755.503Z" fill="#C9A96E"/>
<path d="M698.223 271.574V335.509H682.65V271.574H698.223Z" fill="#C9A96E"/>
<path d="M674.464 271.574V284.051H648.417V297.531H667.907V309.644H648.417V335.509H632.843V271.574H674.464Z" fill="#C9A96E"/>
<path d="M591.483 336.147C585.472 336.147 579.946 334.75 574.907 331.957C569.928 329.164 565.951 325.278 562.976 320.299C560.062 315.26 558.604 309.613 558.604 303.359C558.604 297.106 560.062 291.489 562.976 286.511C565.951 281.532 569.928 277.646 574.907 274.853C579.946 272.06 585.472 270.663 591.483 270.663C597.494 270.663 602.988 272.06 607.967 274.853C613.007 277.646 616.953 281.532 619.807 286.511C622.721 291.489 624.179 297.106 624.179 303.359C624.179 309.613 622.721 315.26 619.807 320.299C616.893 325.278 612.946 329.164 607.967 331.957C602.988 334.75 597.494 336.147 591.483 336.147ZM591.483 321.939C596.583 321.939 600.651 320.239 603.687 316.839C606.783 313.438 608.331 308.945 608.331 303.359C608.331 297.713 606.783 293.22 603.687 289.88C600.651 286.48 596.583 284.78 591.483 284.78C586.322 284.78 582.193 286.45 579.096 289.789C576.06 293.129 574.543 297.652 574.543 303.359C574.543 309.006 576.06 313.53 579.096 316.93C582.193 320.269 586.322 321.939 591.483 321.939Z" fill="#C9A96E"/>
<path d="M534.438 335.509L521.141 311.374H517.407V335.509H501.833V271.574H527.972C533.011 271.574 537.292 272.455 540.813 274.215C544.396 275.976 547.067 278.405 548.828 281.501C550.589 284.537 551.469 287.937 551.469 291.702C551.469 295.952 550.255 299.747 547.826 303.086C545.458 306.426 541.937 308.794 537.261 310.19L552.016 335.509H534.438ZM517.407 300.354H527.061C529.915 300.354 532.04 299.656 533.436 298.259C534.893 296.863 535.622 294.889 535.622 292.339C535.622 289.911 534.893 287.998 533.436 286.602C532.04 285.205 529.915 284.507 527.061 284.507H517.407V300.354Z" fill="#C9A96E"/>
<path d="M493.725 292.157C493.725 295.861 492.875 299.261 491.175 302.358C489.475 305.393 486.864 307.852 483.343 309.735C479.821 311.617 475.45 312.558 470.228 312.558H460.574V335.509H445V271.574H470.228C475.328 271.574 479.639 272.455 483.161 274.215C486.682 275.976 489.323 278.405 491.084 281.501C492.845 284.598 493.725 288.15 493.725 292.157ZM469.044 300.172C472.019 300.172 474.235 299.474 475.692 298.077C477.15 296.681 477.878 294.707 477.878 292.157C477.878 289.607 477.15 287.634 475.692 286.237C474.235 284.841 472.019 284.143 469.044 284.143H460.574V300.172H469.044Z" fill="#C9A96E"/>
<path d="M738.522 391.264C736.218 391.264 734.147 390.863 732.31 390.062C730.507 389.227 729.088 388.091 728.053 386.655C727.017 385.186 726.483 383.5 726.45 381.596H731.309C731.476 383.233 732.143 384.618 733.312 385.754C734.514 386.856 736.251 387.407 738.522 387.407C740.692 387.407 742.395 386.873 743.631 385.804C744.9 384.702 745.535 383.299 745.535 381.596C745.535 380.26 745.167 379.175 744.433 378.34C743.698 377.505 742.78 376.871 741.677 376.437C740.575 376.003 739.089 375.535 737.219 375.034C734.915 374.433 733.062 373.832 731.659 373.231C730.29 372.63 729.105 371.695 728.103 370.426C727.134 369.123 726.65 367.387 726.65 365.216C726.65 363.313 727.134 361.626 728.103 360.157C729.071 358.688 730.424 357.552 732.16 356.751C733.93 355.949 735.95 355.549 738.221 355.549C741.494 355.549 744.165 356.367 746.236 358.003C748.34 359.64 749.525 361.81 749.792 364.515H744.783C744.616 363.179 743.915 362.01 742.679 361.009C741.444 359.973 739.807 359.456 737.77 359.456C735.867 359.456 734.314 359.957 733.112 360.959C731.91 361.927 731.309 363.296 731.309 365.066C731.309 366.335 731.659 367.37 732.36 368.172C733.095 368.973 733.98 369.591 735.015 370.025C736.084 370.426 737.57 370.893 739.473 371.428C741.778 372.062 743.631 372.697 745.034 373.331C746.436 373.932 747.638 374.884 748.64 376.186C749.642 377.455 750.143 379.192 750.143 381.396C750.143 383.099 749.692 384.702 748.79 386.205C747.889 387.707 746.553 388.926 744.783 389.861C743.013 390.796 740.926 391.264 738.522 391.264Z" fill="#C9A96E"/>
<path d="M706.328 359.706V371.377H719.051V375.134H706.328V387.156H720.554V390.913H701.77V355.949H720.554V359.706H706.328Z" fill="#C9A96E"/>
<path d="M694 390.913H689.441L671.108 363.112V390.913H666.549V355.949H671.108L689.441 383.7V355.949H694V390.913Z" fill="#C9A96E"/>
<path d="M643 391.264C639.761 391.264 636.805 390.512 634.134 389.01C631.462 387.474 629.342 385.353 627.772 382.648C626.236 379.91 625.468 376.838 625.468 373.431C625.468 370.025 626.236 366.97 627.772 364.265C629.342 361.526 631.462 359.406 634.134 357.903C636.805 356.367 639.761 355.599 643 355.599C646.272 355.599 649.245 356.367 651.916 357.903C654.588 359.406 656.691 361.51 658.228 364.214C659.764 366.919 660.532 369.992 660.532 373.431C660.532 376.871 659.764 379.943 658.228 382.648C656.691 385.353 654.588 387.474 651.916 389.01C649.245 390.512 646.272 391.264 643 391.264ZM643 387.307C645.438 387.307 647.625 386.739 649.562 385.604C651.532 384.468 653.068 382.848 654.17 380.745C655.306 378.641 655.873 376.203 655.873 373.431C655.873 370.626 655.306 368.188 654.17 366.118C653.068 364.014 651.549 362.394 649.612 361.259C647.675 360.124 645.471 359.556 643 359.556C640.529 359.556 638.325 360.124 636.388 361.259C634.451 362.394 632.915 364.014 631.779 366.118C630.677 368.188 630.126 370.626 630.126 373.431C630.126 376.203 630.677 378.641 631.779 380.745C632.915 382.848 634.451 384.468 636.388 385.604C638.358 386.739 640.562 387.307 643 387.307Z" fill="#C9A96E"/>
<path d="M619.402 356V390.913H614.844V356H619.402Z" fill="#C9A96E"/>
<path d="M596.515 391.264C594.21 391.264 592.14 390.863 590.303 390.062C588.5 389.227 587.081 388.091 586.045 386.655C585.01 385.186 584.476 383.5 584.443 381.596H589.301C589.468 383.233 590.136 384.618 591.305 385.754C592.507 386.856 594.244 387.407 596.515 387.407C598.685 387.407 600.388 386.873 601.624 385.804C602.893 384.702 603.527 383.299 603.527 381.596C603.527 380.26 603.16 379.175 602.425 378.34C601.691 377.505 600.772 376.871 599.67 376.437C598.568 376.003 597.082 375.535 595.212 375.034C592.908 374.433 591.055 373.832 589.652 373.231C588.283 372.63 587.097 371.695 586.096 370.426C585.127 369.123 584.643 367.387 584.643 365.216C584.643 363.313 585.127 361.626 586.096 360.157C587.064 358.688 588.416 357.552 590.153 356.751C591.923 355.949 593.943 355.549 596.214 355.549C599.487 355.549 602.158 356.367 604.229 358.003C606.332 359.64 607.518 361.81 607.785 364.515H602.776C602.609 363.179 601.908 362.01 600.672 361.009C599.437 359.973 597.8 359.456 595.763 359.456C593.86 359.456 592.307 359.957 591.105 360.959C589.902 361.927 589.301 363.296 589.301 365.066C589.301 366.335 589.652 367.37 590.353 368.172C591.088 368.973 591.973 369.591 593.008 370.025C594.077 370.426 595.563 370.893 597.466 371.428C599.77 372.062 601.624 372.697 603.026 373.331C604.429 373.932 605.631 374.884 606.633 376.186C607.635 377.455 608.136 379.192 608.136 381.396C608.136 383.099 607.685 384.702 606.783 386.205C605.882 387.707 604.546 388.926 602.776 389.861C601.006 390.796 598.919 391.264 596.515 391.264Z" fill="#C9A96E"/>
<path d="M573.352 390.913L565.037 376.637H559.527V390.913H554.969V356H566.239C568.878 356 571.098 356.45 572.902 357.352C574.738 358.254 576.107 359.473 577.009 361.009C577.911 362.545 578.362 364.298 578.362 366.268C578.362 368.673 577.66 370.793 576.258 372.63C574.889 374.467 572.818 375.685 570.046 376.287L578.812 390.913H573.352ZM559.527 372.981H566.239C568.711 372.981 570.564 372.379 571.8 371.177C573.035 369.942 573.653 368.305 573.653 366.268C573.653 364.198 573.035 362.595 571.8 361.459C570.597 360.324 568.744 359.756 566.239 359.756H559.527V372.981Z" fill="#C9A96E"/>
<path d="M533.846 359.706V371.377H546.569V375.134H533.846V387.156H548.072V390.913H529.287V355.949H548.072V359.706H533.846Z" fill="#C9A96E"/>
<path d="M524.289 356L511.115 390.913H505.855L492.681 356H497.54L508.51 386.104L519.48 356H524.289Z" fill="#C9A96E"/>
<path d="M487.666 390.913H483.108L464.774 363.112V390.913H460.216V355.949H464.774L483.108 383.7V355.949H487.666V390.913Z" fill="#C9A96E"/>
<path d="M452.447 356V390.913H447.889V356H452.447Z" fill="#C9A96E"/>
<path d="M738.166 436C736.141 436 734.322 435.648 732.707 434.943C731.123 434.21 729.875 433.212 728.966 431.95C728.056 430.659 727.586 429.177 727.557 427.504H731.827C731.974 428.942 732.561 430.16 733.588 431.158C734.644 432.126 736.17 432.61 738.166 432.61C740.073 432.61 741.57 432.141 742.656 431.202C743.771 430.233 744.329 429.001 744.329 427.504C744.329 426.33 744.006 425.377 743.36 424.643C742.715 423.909 741.908 423.352 740.939 422.97C739.971 422.589 738.665 422.178 737.021 421.738C734.996 421.209 733.368 420.681 732.135 420.153C730.932 419.625 729.89 418.803 729.01 417.688C728.159 416.543 727.733 415.017 727.733 413.11C727.733 411.437 728.159 409.955 729.01 408.664C729.861 407.372 731.049 406.375 732.575 405.67C734.131 404.966 735.906 404.614 737.902 404.614C740.778 404.614 743.125 405.333 744.945 406.771C746.794 408.209 747.836 410.116 748.07 412.493H743.668C743.522 411.32 742.905 410.292 741.82 409.412C740.734 408.502 739.296 408.047 737.506 408.047C735.833 408.047 734.468 408.488 733.412 409.368C732.355 410.219 731.827 411.422 731.827 412.978C731.827 414.093 732.135 415.003 732.751 415.707C733.397 416.411 734.175 416.954 735.085 417.336C736.024 417.688 737.329 418.099 739.002 418.568C741.027 419.126 742.656 419.683 743.888 420.241C745.121 420.769 746.177 421.606 747.058 422.75C747.938 423.865 748.378 425.391 748.378 427.328C748.378 428.825 747.982 430.233 747.19 431.554C746.398 432.875 745.224 433.946 743.668 434.767C742.113 435.589 740.279 436 738.166 436Z" fill="#C9A96E"/>
<path d="M716.912 428.869H703.53L701.065 435.692H696.839L707.932 405.186H712.554L723.603 435.692H719.377L716.912 428.869ZM715.767 425.611L710.221 410.116L704.674 425.611H715.767Z" fill="#C9A96E"/>
<path d="M691.949 405.01V435.692H687.943V405.01H691.949Z" fill="#C9A96E"/>
<path d="M677.317 435.692L670.009 423.146H665.167V435.692H661.161V405.01H671.066C673.384 405.01 675.336 405.406 676.92 406.199C678.534 406.991 679.738 408.062 680.53 409.412C681.322 410.762 681.718 412.303 681.718 414.034C681.718 416.147 681.102 418.011 679.87 419.625C678.666 421.239 676.847 422.31 674.411 422.838L682.115 435.692H677.317ZM665.167 419.933H671.066C673.237 419.933 674.866 419.405 675.952 418.348C677.038 417.262 677.581 415.824 677.581 414.034C677.581 412.215 677.038 410.806 675.952 409.808C674.895 408.811 673.267 408.312 671.066 408.312H665.167V419.933Z" fill="#C9A96E"/>
<path d="M649.636 428.869H636.254L633.789 435.692H629.563L640.656 405.186H645.278L656.327 435.692H652.101L649.636 428.869ZM648.491 425.611L642.945 410.116L637.398 425.611H648.491Z" fill="#C9A96E"/>
<path d="M624.672 405.01V435.692H620.667V405.01H624.672Z" fill="#C9A96E"/>
<path d="M605.672 432.434H616.412V435.692H601.666V405.01H605.672V432.434Z" fill="#C9A96E"/>
<path d="M594.839 405.01V435.692H590.833V405.01H594.839Z" fill="#C9A96E"/>
<path d="M579.199 419.889C580.314 420.065 581.327 420.52 582.237 421.253C583.176 421.987 583.909 422.897 584.438 423.983C584.995 425.068 585.274 426.228 585.274 427.46C585.274 429.016 584.878 430.424 584.085 431.686C583.293 432.919 582.134 433.902 580.608 434.635C579.111 435.34 577.336 435.692 575.281 435.692H563.836V405.01H574.841C576.925 405.01 578.7 405.362 580.168 406.067C581.635 406.742 582.735 407.666 583.469 408.84C584.203 410.014 584.57 411.334 584.57 412.802C584.57 414.621 584.071 416.132 583.073 417.336C582.105 418.51 580.813 419.361 579.199 419.889ZM567.842 418.26H574.577C576.455 418.26 577.908 417.82 578.935 416.939C579.962 416.059 580.476 414.841 580.476 413.286C580.476 411.73 579.962 410.513 578.935 409.632C577.908 408.752 576.426 408.312 574.489 408.312H567.842V418.26ZM574.929 432.39C576.925 432.39 578.48 431.921 579.595 430.982C580.711 430.043 581.268 428.737 581.268 427.064C581.268 425.362 580.681 424.027 579.507 423.058C578.334 422.06 576.763 421.562 574.797 421.562H567.842V432.39H574.929Z" fill="#C9A96E"/>
<path d="M543.141 436C540.295 436 537.698 435.34 535.35 434.019C533.002 432.669 531.139 430.806 529.759 428.429C528.409 426.022 527.734 423.322 527.734 420.329C527.734 417.336 528.409 414.65 529.759 412.273C531.139 409.867 533.002 408.003 535.35 406.683C537.698 405.333 540.295 404.658 543.141 404.658C546.017 404.658 548.629 405.333 550.977 406.683C553.325 408.003 555.173 409.852 556.523 412.229C557.873 414.606 558.548 417.306 558.548 420.329C558.548 423.352 557.873 426.052 556.523 428.429C555.173 430.806 553.325 432.669 550.977 434.019C548.629 435.34 546.017 436 543.141 436ZM543.141 432.522C545.284 432.522 547.206 432.024 548.908 431.026C550.639 430.028 551.989 428.605 552.958 426.756C553.955 424.907 554.454 422.765 554.454 420.329C554.454 417.864 553.955 415.722 552.958 413.902C551.989 412.053 550.654 410.63 548.952 409.632C547.25 408.634 545.313 408.136 543.141 408.136C540.97 408.136 539.033 408.634 537.331 409.632C535.629 410.63 534.279 412.053 533.281 413.902C532.312 415.722 531.828 417.864 531.828 420.329C531.828 422.765 532.312 424.907 533.281 426.756C534.279 428.605 535.629 430.028 537.331 431.026C539.062 432.024 540.999 432.522 543.141 432.522Z" fill="#C9A96E"/>
<path d="M522.438 405.23V435.692H518.432V412.978L508.307 435.692H505.49L495.321 412.934V435.692H491.316V405.23H495.63L506.899 430.41L518.168 405.23H522.438Z" fill="#C9A96E"/>
<path d="M484.487 435.692H480.481L464.37 411.261V435.692H460.364V404.966H464.37L480.481 429.353V404.966H484.487V435.692Z" fill="#C9A96E"/>
<path d="M453.537 405.01V435.692H449.531V405.01H453.537Z" fill="#C9A96E"/>
<path d="M458.431 478.151V490H456.884V478.151H458.431ZM465.606 480.514C466.74 480.514 467.658 480.86 468.36 481.551C469.063 482.231 469.414 483.217 469.414 484.509V490H467.884V484.73C467.884 483.801 467.652 483.092 467.187 482.605C466.723 482.106 466.088 481.857 465.283 481.857C464.467 481.857 463.816 482.112 463.328 482.622C462.852 483.132 462.614 483.874 462.614 484.849V490H461.067V480.684H462.614V482.01C462.92 481.534 463.334 481.166 463.855 480.905C464.388 480.644 464.972 480.514 465.606 480.514ZM475.409 488.572L478.299 480.684H479.948L476.293 490H474.491L470.836 480.684H472.502L475.409 488.572ZM489.971 484.985C489.971 485.28 489.954 485.591 489.92 485.92H482.474C482.53 486.838 482.842 487.558 483.409 488.079C483.987 488.589 484.684 488.844 485.5 488.844C486.168 488.844 486.724 488.691 487.166 488.385C487.619 488.068 487.936 487.648 488.118 487.127H489.784C489.534 488.022 489.036 488.753 488.288 489.32C487.54 489.875 486.61 490.153 485.5 490.153C484.616 490.153 483.822 489.955 483.12 489.558C482.428 489.161 481.884 488.6 481.488 487.875C481.091 487.138 480.893 486.288 480.893 485.325C480.893 484.362 481.085 483.517 481.471 482.792C481.856 482.067 482.394 481.511 483.086 481.126C483.788 480.729 484.593 480.531 485.5 480.531C486.384 480.531 487.166 480.724 487.846 481.109C488.526 481.494 489.047 482.027 489.41 482.707C489.784 483.376 489.971 484.135 489.971 484.985ZM488.373 484.662C488.373 484.073 488.242 483.568 487.982 483.149C487.721 482.718 487.364 482.395 486.911 482.18C486.469 481.953 485.976 481.84 485.432 481.84C484.65 481.84 483.981 482.089 483.426 482.588C482.882 483.087 482.57 483.778 482.491 484.662H488.373ZM493.56 482.197C493.832 481.664 494.217 481.251 494.716 480.956C495.226 480.661 495.843 480.514 496.569 480.514V482.112H496.161C494.427 482.112 493.56 483.053 493.56 484.934V490H492.013V480.684H493.56V482.197ZM501.652 490.153C500.938 490.153 500.298 490.034 499.731 489.796C499.165 489.547 498.717 489.207 498.388 488.776C498.06 488.334 497.878 487.83 497.844 487.263H499.442C499.488 487.728 499.703 488.107 500.088 488.402C500.485 488.697 501.001 488.844 501.635 488.844C502.225 488.844 502.689 488.714 503.029 488.453C503.369 488.192 503.539 487.864 503.539 487.467C503.539 487.059 503.358 486.759 502.995 486.566C502.633 486.362 502.072 486.164 501.312 485.971C500.621 485.79 500.054 485.608 499.612 485.427C499.182 485.234 498.808 484.957 498.49 484.594C498.184 484.22 498.031 483.733 498.031 483.132C498.031 482.656 498.173 482.22 498.456 481.823C498.74 481.426 499.142 481.115 499.663 480.888C500.185 480.65 500.78 480.531 501.448 480.531C502.48 480.531 503.313 480.792 503.947 481.313C504.582 481.834 504.922 482.548 504.967 483.455H503.42C503.386 482.968 503.188 482.577 502.825 482.282C502.474 481.987 501.998 481.84 501.397 481.84C500.842 481.84 500.4 481.959 500.071 482.197C499.743 482.435 499.578 482.747 499.578 483.132C499.578 483.438 499.675 483.693 499.867 483.897C500.071 484.09 500.321 484.248 500.615 484.373C500.921 484.486 501.341 484.617 501.873 484.764C502.542 484.945 503.086 485.127 503.505 485.308C503.925 485.478 504.282 485.739 504.576 486.09C504.882 486.441 505.041 486.9 505.052 487.467C505.052 487.977 504.911 488.436 504.627 488.844C504.344 489.252 503.942 489.575 503.42 489.813C502.91 490.04 502.321 490.153 501.652 490.153ZM508.035 479.171C507.741 479.171 507.491 479.069 507.287 478.865C507.083 478.661 506.981 478.412 506.981 478.117C506.981 477.822 507.083 477.573 507.287 477.369C507.491 477.165 507.741 477.063 508.035 477.063C508.319 477.063 508.557 477.165 508.749 477.369C508.953 477.573 509.055 477.822 509.055 478.117C509.055 478.412 508.953 478.661 508.749 478.865C508.557 479.069 508.319 479.171 508.035 479.171ZM508.783 480.684V490H507.236V480.684H508.783ZM515.483 490.153C514.61 490.153 513.817 489.955 513.103 489.558C512.4 489.161 511.845 488.6 511.437 487.875C511.04 487.138 510.842 486.288 510.842 485.325C510.842 484.373 511.046 483.534 511.454 482.809C511.873 482.072 512.44 481.511 513.154 481.126C513.868 480.729 514.667 480.531 515.551 480.531C516.435 480.531 517.234 480.729 517.948 481.126C518.662 481.511 519.223 482.067 519.631 482.792C520.05 483.517 520.26 484.362 520.26 485.325C520.26 486.288 520.045 487.138 519.614 487.875C519.195 488.6 518.622 489.161 517.897 489.558C517.172 489.955 516.367 490.153 515.483 490.153ZM515.483 488.793C516.038 488.793 516.56 488.663 517.047 488.402C517.534 488.141 517.925 487.75 518.22 487.229C518.526 486.708 518.679 486.073 518.679 485.325C518.679 484.577 518.532 483.942 518.237 483.421C517.942 482.9 517.557 482.514 517.081 482.265C516.605 482.004 516.089 481.874 515.534 481.874C514.967 481.874 514.446 482.004 513.97 482.265C513.505 482.514 513.131 482.9 512.848 483.421C512.565 483.942 512.423 484.577 512.423 485.325C512.423 486.084 512.559 486.725 512.831 487.246C513.114 487.767 513.488 488.158 513.953 488.419C514.418 488.668 514.928 488.793 515.483 488.793ZM517.217 477.93L513.596 479.868V478.712L517.217 476.587V477.93ZM526.833 480.514C527.966 480.514 528.884 480.86 529.587 481.551C530.29 482.231 530.641 483.217 530.641 484.509V490H529.111V484.73C529.111 483.801 528.879 483.092 528.414 482.605C527.949 482.106 527.315 481.857 526.51 481.857C525.694 481.857 525.042 482.112 524.555 482.622C524.079 483.132 523.841 483.874 523.841 484.849V490H522.294V480.684H523.841V482.01C524.147 481.534 524.561 481.166 525.082 480.905C525.615 480.644 526.198 480.514 526.833 480.514ZM539.247 478.151V490H537.7V478.151H539.247ZM546.423 480.514C547.556 480.514 548.474 480.86 549.177 481.551C549.879 482.231 550.231 483.217 550.231 484.509V490H548.701V484.73C548.701 483.801 548.468 483.092 548.004 482.605C547.539 482.106 546.904 481.857 546.1 481.857C545.284 481.857 544.632 482.112 544.145 482.622C543.669 483.132 543.431 483.874 543.431 484.849V490H541.884V480.684H543.431V482.01C543.737 481.534 544.15 481.166 544.672 480.905C545.204 480.644 545.788 480.514 546.423 480.514ZM563.961 480.514C564.686 480.514 565.332 480.667 565.899 480.973C566.465 481.268 566.913 481.715 567.242 482.316C567.57 482.917 567.735 483.648 567.735 484.509V490H566.205V484.73C566.205 483.801 565.972 483.092 565.508 482.605C565.054 482.106 564.437 481.857 563.655 481.857C562.85 481.857 562.21 482.118 561.734 482.639C561.258 483.149 561.02 483.891 561.02 484.866V490H559.49V484.73C559.49 483.801 559.257 483.092 558.793 482.605C558.339 482.106 557.722 481.857 556.94 481.857C556.135 481.857 555.495 482.118 555.019 482.639C554.543 483.149 554.305 483.891 554.305 484.866V490H552.758V480.684H554.305V482.027C554.611 481.54 555.019 481.166 555.529 480.905C556.05 480.644 556.622 480.514 557.246 480.514C558.028 480.514 558.719 480.69 559.32 481.041C559.92 481.392 560.368 481.908 560.663 482.588C560.923 481.931 561.354 481.421 561.955 481.058C562.555 480.695 563.224 480.514 563.961 480.514ZM574.335 490.153C573.463 490.153 572.669 489.955 571.955 489.558C571.253 489.161 570.697 488.6 570.289 487.875C569.893 487.138 569.694 486.288 569.694 485.325C569.694 484.373 569.898 483.534 570.306 482.809C570.726 482.072 571.292 481.511 572.006 481.126C572.72 480.729 573.519 480.531 574.403 480.531C575.287 480.531 576.086 480.729 576.8 481.126C577.514 481.511 578.075 482.067 578.483 482.792C578.903 483.517 579.112 484.362 579.112 485.325C579.112 486.288 578.897 487.138 578.466 487.875C578.047 488.6 577.475 489.161 576.749 489.558C576.024 489.955 575.219 490.153 574.335 490.153ZM574.335 488.793C574.891 488.793 575.412 488.663 575.899 488.402C576.387 488.141 576.778 487.75 577.072 487.229C577.378 486.708 577.531 486.073 577.531 485.325C577.531 484.577 577.384 483.942 577.089 483.421C576.795 482.9 576.409 482.514 575.933 482.265C575.457 482.004 574.942 481.874 574.386 481.874C573.82 481.874 573.298 482.004 572.822 482.265C572.358 482.514 571.984 482.9 571.7 483.421C571.417 483.942 571.275 484.577 571.275 485.325C571.275 486.084 571.411 486.725 571.683 487.246C571.967 487.767 572.341 488.158 572.805 488.419C573.27 488.668 573.78 488.793 574.335 488.793ZM582.693 482.418C583.011 481.863 583.475 481.409 584.087 481.058C584.699 480.707 585.396 480.531 586.178 480.531C587.017 480.531 587.771 480.729 588.439 481.126C589.108 481.523 589.635 482.084 590.02 482.809C590.406 483.523 590.598 484.356 590.598 485.308C590.598 486.249 590.406 487.087 590.02 487.824C589.635 488.561 589.102 489.133 588.422 489.541C587.754 489.949 587.006 490.153 586.178 490.153C585.374 490.153 584.665 489.977 584.053 489.626C583.453 489.275 582.999 488.827 582.693 488.283V490H581.146V477.42H582.693V482.418ZM589.017 485.308C589.017 484.605 588.876 483.993 588.592 483.472C588.309 482.951 587.924 482.554 587.436 482.282C586.96 482.01 586.433 481.874 585.855 481.874C585.289 481.874 584.762 482.016 584.274 482.299C583.798 482.571 583.413 482.973 583.118 483.506C582.835 484.027 582.693 484.634 582.693 485.325C582.693 486.028 582.835 486.645 583.118 487.178C583.413 487.699 583.798 488.102 584.274 488.385C584.762 488.657 585.289 488.793 585.855 488.793C586.433 488.793 586.96 488.657 587.436 488.385C587.924 488.102 588.309 487.699 588.592 487.178C588.876 486.645 589.017 486.022 589.017 485.308ZM593.434 479.171C593.139 479.171 592.89 479.069 592.686 478.865C592.482 478.661 592.38 478.412 592.38 478.117C592.38 477.822 592.482 477.573 592.686 477.369C592.89 477.165 593.139 477.063 593.434 477.063C593.717 477.063 593.955 477.165 594.148 477.369C594.352 477.573 594.454 477.822 594.454 478.117C594.454 478.412 594.352 478.661 594.148 478.865C593.955 479.069 593.717 479.171 593.434 479.171ZM594.182 480.684V490H592.635V480.684H594.182ZM598.365 477.42V490H596.818V477.42H598.365ZM601.801 479.171C601.506 479.171 601.257 479.069 601.053 478.865C600.849 478.661 600.747 478.412 600.747 478.117C600.747 477.822 600.849 477.573 601.053 477.369C601.257 477.165 601.506 477.063 601.801 477.063C602.084 477.063 602.322 477.165 602.515 477.369C602.719 477.573 602.821 477.822 602.821 478.117C602.821 478.412 602.719 478.661 602.515 478.865C602.322 479.069 602.084 479.171 601.801 479.171ZM602.549 480.684V490H601.002V480.684H602.549ZM604.607 485.308C604.607 484.356 604.8 483.523 605.185 482.809C605.571 482.084 606.098 481.523 606.766 481.126C607.446 480.729 608.2 480.531 609.027 480.531C609.843 480.531 610.552 480.707 611.152 481.058C611.753 481.409 612.201 481.851 612.495 482.384V480.684H614.059V490H612.495V488.266C612.189 488.81 611.73 489.263 611.118 489.626C610.518 489.977 609.815 490.153 609.01 490.153C608.183 490.153 607.435 489.949 606.766 489.541C606.098 489.133 605.571 488.561 605.185 487.824C604.8 487.087 604.607 486.249 604.607 485.308ZM612.495 485.325C612.495 484.622 612.354 484.01 612.07 483.489C611.787 482.968 611.402 482.571 610.914 482.299C610.438 482.016 609.911 481.874 609.333 481.874C608.755 481.874 608.228 482.01 607.752 482.282C607.276 482.554 606.897 482.951 606.613 483.472C606.33 483.993 606.188 484.605 606.188 485.308C606.188 486.022 606.33 486.645 606.613 487.178C606.897 487.699 607.276 488.102 607.752 488.385C608.228 488.657 608.755 488.793 609.333 488.793C609.911 488.793 610.438 488.657 610.914 488.385C611.402 488.102 611.787 487.699 612.07 487.178C612.354 486.645 612.495 486.028 612.495 485.325ZM618.221 482.197C618.493 481.664 618.878 481.251 619.377 480.956C619.887 480.661 620.504 480.514 621.23 480.514V482.112H620.822C619.088 482.112 618.221 483.053 618.221 484.934V490H616.674V480.684H618.221V482.197ZM623.815 479.171C623.52 479.171 623.271 479.069 623.067 478.865C622.863 478.661 622.761 478.412 622.761 478.117C622.761 477.822 622.863 477.573 623.067 477.369C623.271 477.165 623.52 477.063 623.815 477.063C624.098 477.063 624.336 477.165 624.529 477.369C624.733 477.573 624.835 477.822 624.835 478.117C624.835 478.412 624.733 478.661 624.529 478.865C624.336 479.069 624.098 479.171 623.815 479.171ZM624.563 480.684V490H623.016V480.684H624.563ZM626.621 485.308C626.621 484.356 626.814 483.523 627.199 482.809C627.584 482.084 628.111 481.523 628.78 481.126C629.46 480.729 630.214 480.531 631.041 480.531C631.857 480.531 632.565 480.707 633.166 481.058C633.767 481.409 634.214 481.851 634.509 482.384V480.684H636.073V490H634.509V488.266C634.203 488.81 633.744 489.263 633.132 489.626C632.531 489.977 631.829 490.153 631.024 490.153C630.197 490.153 629.449 489.949 628.78 489.541C628.111 489.133 627.584 488.561 627.199 487.824C626.814 487.087 626.621 486.249 626.621 485.308ZM634.509 485.325C634.509 484.622 634.367 484.01 634.084 483.489C633.801 482.968 633.415 482.571 632.928 482.299C632.452 482.016 631.925 481.874 631.347 481.874C630.769 481.874 630.242 482.01 629.766 482.282C629.29 482.554 628.91 482.951 628.627 483.472C628.344 483.993 628.202 484.605 628.202 485.308C628.202 486.022 628.344 486.645 628.627 487.178C628.91 487.699 629.29 488.102 629.766 488.385C630.242 488.657 630.769 488.793 631.347 488.793C631.925 488.793 632.452 488.657 632.928 488.385C633.415 488.102 633.801 487.699 634.084 487.178C634.367 486.645 634.509 486.028 634.509 485.325ZM651.72 484.985C651.72 485.28 651.703 485.591 651.669 485.92H644.223C644.279 486.838 644.591 487.558 645.158 488.079C645.736 488.589 646.433 488.844 647.249 488.844C647.917 488.844 648.473 488.691 648.915 488.385C649.368 488.068 649.685 487.648 649.867 487.127H651.533C651.283 488.022 650.785 488.753 650.037 489.32C649.289 489.875 648.359 490.153 647.249 490.153C646.365 490.153 645.571 489.955 644.869 489.558C644.177 489.161 643.633 488.6 643.237 487.875C642.84 487.138 642.642 486.288 642.642 485.325C642.642 484.362 642.834 483.517 643.22 482.792C643.605 482.067 644.143 481.511 644.835 481.126C645.537 480.729 646.342 480.531 647.249 480.531C648.133 480.531 648.915 480.724 649.595 481.109C650.275 481.494 650.796 482.027 651.159 482.707C651.533 483.376 651.72 484.135 651.72 484.985ZM650.122 484.662C650.122 484.073 649.991 483.568 649.731 483.149C649.47 482.718 649.113 482.395 648.66 482.18C648.218 481.953 647.725 481.84 647.181 481.84C646.399 481.84 645.73 482.089 645.175 482.588C644.631 483.087 644.319 483.778 644.24 484.662H650.122ZM658.301 480.514C659.434 480.514 660.352 480.86 661.055 481.551C661.757 482.231 662.109 483.217 662.109 484.509V490H660.579V484.73C660.579 483.801 660.346 483.092 659.882 482.605C659.417 482.106 658.782 481.857 657.978 481.857C657.162 481.857 656.51 482.112 656.023 482.622C655.547 483.132 655.309 483.874 655.309 484.849V490H653.762V480.684H655.309V482.01C655.615 481.534 656.028 481.166 656.55 480.905C657.082 480.644 657.666 480.514 658.301 480.514ZM672.925 490.119C672.143 490.119 671.44 489.983 670.817 489.711C670.205 489.428 669.723 489.042 669.372 488.555C669.021 488.056 668.839 487.484 668.828 486.838H670.477C670.534 487.393 670.76 487.864 671.157 488.249C671.565 488.623 672.154 488.81 672.925 488.81C673.662 488.81 674.24 488.629 674.659 488.266C675.09 487.892 675.305 487.416 675.305 486.838C675.305 486.385 675.18 486.016 674.931 485.733C674.682 485.45 674.37 485.234 673.996 485.087C673.622 484.94 673.118 484.781 672.483 484.611C671.701 484.407 671.072 484.203 670.596 483.999C670.131 483.795 669.729 483.478 669.389 483.047C669.06 482.605 668.896 482.016 668.896 481.279C668.896 480.633 669.06 480.061 669.389 479.562C669.718 479.063 670.177 478.678 670.766 478.406C671.367 478.134 672.052 477.998 672.823 477.998C673.934 477.998 674.84 478.276 675.543 478.831C676.257 479.386 676.659 480.123 676.75 481.041H675.05C674.993 480.588 674.755 480.191 674.336 479.851C673.917 479.5 673.361 479.324 672.67 479.324C672.024 479.324 671.497 479.494 671.089 479.834C670.681 480.163 670.477 480.627 670.477 481.228C670.477 481.659 670.596 482.01 670.834 482.282C671.083 482.554 671.384 482.764 671.735 482.911C672.098 483.047 672.602 483.206 673.248 483.387C674.03 483.602 674.659 483.818 675.135 484.033C675.611 484.237 676.019 484.56 676.359 485.002C676.699 485.433 676.869 486.022 676.869 486.77C676.869 487.348 676.716 487.892 676.41 488.402C676.104 488.912 675.651 489.326 675.05 489.643C674.449 489.96 673.741 490.119 672.925 490.119ZM678.567 485.308C678.567 484.356 678.76 483.523 679.145 482.809C679.531 482.084 680.058 481.523 680.726 481.126C681.406 480.729 682.16 480.531 682.987 480.531C683.803 480.531 684.512 480.707 685.112 481.058C685.713 481.409 686.161 481.851 686.455 482.384V480.684H688.019V490H686.455V488.266C686.149 488.81 685.69 489.263 685.078 489.626C684.478 489.977 683.775 490.153 682.97 490.153C682.143 490.153 681.395 489.949 680.726 489.541C680.058 489.133 679.531 488.561 679.145 487.824C678.76 487.087 678.567 486.249 678.567 485.308ZM686.455 485.325C686.455 484.622 686.314 484.01 686.03 483.489C685.747 482.968 685.362 482.571 684.874 482.299C684.398 482.016 683.871 481.874 683.293 481.874C682.715 481.874 682.188 482.01 681.712 482.282C681.236 482.554 680.857 482.951 680.573 483.472C680.29 483.993 680.148 484.605 680.148 485.308C680.148 486.022 680.29 486.645 680.573 487.178C680.857 487.699 681.236 488.102 681.712 488.385C682.188 488.657 682.715 488.793 683.293 488.793C683.871 488.793 684.398 488.657 684.874 488.385C685.362 488.102 685.747 487.699 686.03 487.178C686.314 486.645 686.455 486.028 686.455 485.325ZM695.173 480.514C696.306 480.514 697.224 480.86 697.927 481.551C698.629 482.231 698.981 483.217 698.981 484.509V490H697.451V484.73C697.451 483.801 697.218 483.092 696.754 482.605C696.289 482.106 695.654 481.857 694.85 481.857C694.034 481.857 693.382 482.112 692.895 482.622C692.419 483.132 692.181 483.874 692.181 484.849V490H690.634V480.684H692.181V482.01C692.487 481.534 692.9 481.166 693.422 480.905C693.954 480.644 694.538 480.514 695.173 480.514ZM703.395 481.959V487.45C703.395 487.903 703.491 488.226 703.684 488.419C703.876 488.6 704.211 488.691 704.687 488.691H705.826V490H704.432C703.57 490 702.924 489.802 702.494 489.405C702.063 489.008 701.848 488.357 701.848 487.45V481.959H700.641V480.684H701.848V478.338H703.395V480.684H705.826V481.959H703.395ZM708.499 479.171C708.204 479.171 707.955 479.069 707.751 478.865C707.547 478.661 707.445 478.412 707.445 478.117C707.445 477.822 707.547 477.573 707.751 477.369C707.955 477.165 708.204 477.063 708.499 477.063C708.782 477.063 709.02 477.165 709.213 477.369C709.417 477.573 709.519 477.822 709.519 478.117C709.519 478.412 709.417 478.661 709.213 478.865C709.02 479.069 708.782 479.171 708.499 479.171ZM709.247 480.684V490H707.7V480.684H709.247ZM711.306 485.308C711.306 484.356 711.498 483.523 711.884 482.809C712.269 482.084 712.796 481.523 713.465 481.126C714.145 480.729 714.898 480.531 715.726 480.531C716.542 480.531 717.25 480.707 717.851 481.058C718.451 481.409 718.899 481.851 719.194 482.384V480.684H720.758V490H719.194V488.266C718.888 488.81 718.429 489.263 717.817 489.626C717.216 489.977 716.513 490.153 715.709 490.153C714.881 490.153 714.133 489.949 713.465 489.541C712.796 489.133 712.269 488.561 711.884 487.824C711.498 487.087 711.306 486.249 711.306 485.308ZM719.194 485.325C719.194 484.622 719.052 484.01 718.769 483.489C718.485 482.968 718.1 482.571 717.613 482.299C717.137 482.016 716.61 481.874 716.032 481.874C715.454 481.874 714.927 482.01 714.451 482.282C713.975 482.554 713.595 482.951 713.312 483.472C713.028 483.993 712.887 484.605 712.887 485.308C712.887 486.022 713.028 486.645 713.312 487.178C713.595 487.699 713.975 488.102 714.451 488.385C714.927 488.657 715.454 488.793 716.032 488.793C716.61 488.793 717.137 488.657 717.613 488.385C718.1 488.102 718.485 487.699 718.769 487.178C719.052 486.645 719.194 486.028 719.194 485.325ZM727.214 480.531C728.019 480.531 728.721 480.707 729.322 481.058C729.934 481.409 730.387 481.851 730.682 482.384V480.684H732.246V490.204C732.246 491.054 732.065 491.808 731.702 492.465C731.339 493.134 730.818 493.655 730.138 494.029C729.469 494.403 728.687 494.59 727.792 494.59C726.568 494.59 725.548 494.301 724.732 493.723C723.916 493.145 723.434 492.357 723.287 491.36H724.817C724.987 491.927 725.338 492.38 725.871 492.72C726.404 493.071 727.044 493.247 727.792 493.247C728.642 493.247 729.333 492.981 729.866 492.448C730.41 491.915 730.682 491.167 730.682 490.204V488.249C730.376 488.793 729.923 489.246 729.322 489.609C728.721 489.972 728.019 490.153 727.214 490.153C726.387 490.153 725.633 489.949 724.953 489.541C724.284 489.133 723.757 488.561 723.372 487.824C722.987 487.087 722.794 486.249 722.794 485.308C722.794 484.356 722.987 483.523 723.372 482.809C723.757 482.084 724.284 481.523 724.953 481.126C725.633 480.729 726.387 480.531 727.214 480.531ZM730.682 485.325C730.682 484.622 730.54 484.01 730.257 483.489C729.974 482.968 729.588 482.571 729.101 482.299C728.625 482.016 728.098 481.874 727.52 481.874C726.942 481.874 726.415 482.01 725.939 482.282C725.463 482.554 725.083 482.951 724.8 483.472C724.517 483.993 724.375 484.605 724.375 485.308C724.375 486.022 724.517 486.645 724.8 487.178C725.083 487.699 725.463 488.102 725.939 488.385C726.415 488.657 726.942 488.793 727.52 488.793C728.098 488.793 728.625 488.657 729.101 488.385C729.588 488.102 729.974 487.699 730.257 487.178C730.54 486.645 730.682 486.028 730.682 485.325ZM738.923 490.153C738.051 490.153 737.257 489.955 736.543 489.558C735.841 489.161 735.285 488.6 734.877 487.875C734.481 487.138 734.282 486.288 734.282 485.325C734.282 484.373 734.486 483.534 734.894 482.809C735.314 482.072 735.88 481.511 736.594 481.126C737.308 480.729 738.107 480.531 738.991 480.531C739.875 480.531 740.674 480.729 741.388 481.126C742.102 481.511 742.663 482.067 743.071 482.792C743.491 483.517 743.7 484.362 743.7 485.325C743.7 486.288 743.485 487.138 743.054 487.875C742.635 488.6 742.063 489.161 741.337 489.558C740.612 489.955 739.807 490.153 738.923 490.153ZM738.923 488.793C739.479 488.793 740 488.663 740.487 488.402C740.975 488.141 741.366 487.75 741.66 487.229C741.966 486.708 742.119 486.073 742.119 485.325C742.119 484.577 741.972 483.942 741.677 483.421C741.383 482.9 740.997 482.514 740.521 482.265C740.045 482.004 739.53 481.874 738.974 481.874C738.408 481.874 737.886 482.004 737.41 482.265C736.946 482.514 736.572 482.9 736.288 483.421C736.005 483.942 735.863 484.577 735.863 485.325C735.863 486.084 735.999 486.725 736.271 487.246C736.555 487.767 736.929 488.158 737.393 488.419C737.858 488.668 738.368 488.793 738.923 488.793Z" fill="white"/>
</svg>
